<svg width="50" height="50" viewBox="0 0 50 50" fill="none" xmlns="http://www.w3.org/2000/svg">
<g clip-path="url(#clip0_231_816)">
<g clip-path="url(#clip1_231_816)">
<path fill-rule="evenodd" clip-rule="evenodd" d="M-9.09094 -0.568359H88.0681V3.3734H-9.09094V-0.568359ZM-9.09094 7.30451H88.0681V11.2463H-9.09094V7.30451ZM-9.09094 15.1667H88.0681V19.1085H-9.09094V15.1667ZM-9.09094 23.0289H88.0681V26.9707H-9.09094V23.0289ZM-9.09094 30.9125H88.0681V34.8329H-9.09094V30.9125ZM-9.09094 38.764H88.0681V42.7058H-9.09094V38.764ZM-9.09094 46.6262H88.0681V50.568H-9.09094V46.6262Z" fill="#BD3D44"/>
<path fill-rule="evenodd" clip-rule="evenodd" d="M-9.09094 3.37354H88.0681V7.30464H-9.09094V3.37354ZM-9.09094 11.2358H88.0681V15.1669H-9.09094V11.2358ZM-9.09094 19.098H88.0681V23.0397H-9.09094V19.098ZM-9.09094 26.9708H88.0681V30.9126H-9.09094V26.9708ZM-9.09094 34.833H88.0681V38.7748H-9.09094V34.833ZM-9.09094 42.6953H88.0681V46.637H-9.09094V42.6953Z" fill="white"/>
<path fill-rule="evenodd" clip-rule="evenodd" d="M-9.09094 -0.568359H29.7727V26.9707H-9.09094V-0.568359Z" fill="#192F5D"/>
<path fill-rule="evenodd" clip-rule="evenodd" d="M-5.85236 0.603516L-5.49015 1.70082H-4.36088L-5.27708 2.37198L-4.92552 3.46928L-5.85236 2.78746L-6.76855 3.45863L-6.42765 2.37198L-7.35449 1.70082H-6.19327L-5.85236 0.603516ZM0.62491 0.603516L0.976473 1.70082H2.12704L1.2002 2.37198L1.5411 3.46928L0.62491 2.78746L-0.301936 3.45863L0.0496268 2.37198L-0.866567 1.70082H0.262695L0.62491 0.603516ZM7.10218 0.603516L7.45375 1.70082H8.59366L7.67747 2.37198L8.02903 3.46928L7.10218 2.78746L6.17534 3.45863L6.5269 2.37198L5.60005 1.70082H6.75062L7.10218 0.603516ZM13.5795 0.603516L13.931 1.70082H15.0816L14.1547 2.37198L14.5063 3.46928L13.5795 2.78746L12.6526 3.45863L13.0148 2.37198L12.0773 1.70082H13.2172L13.5795 0.603516ZM20.0567 0.603516L20.4083 1.70082H21.5482L20.632 2.37198L20.9836 3.46928L20.0567 2.78746L19.1299 3.45863L19.4814 2.37198L18.5653 1.70082H19.7052L20.0567 0.603516ZM26.534 0.603516L26.8856 1.70082H28.0361L27.0986 2.37198L27.4608 3.46928L26.534 2.78746L25.6072 3.45863L25.9694 2.37198L25.0319 1.70082H26.1824L26.534 0.603516ZM-2.61373 3.3734L-2.26216 4.46005H-1.10094L-2.02779 5.12056L-1.68688 6.21786L-2.59242 5.5467L-3.51927 6.21786L-3.18901 5.12056L-4.0839 4.46005H-2.94398L-2.61373 3.3734ZM3.86355 3.3734L4.22576 4.46005H5.36568L4.42818 5.12056L4.79039 6.21786L3.86355 5.5467L2.9367 6.21786L3.28826 5.12056L2.36142 4.46005H3.51198L3.86355 3.3734ZM10.3408 3.3734L10.6924 4.46005H11.8429L10.9161 5.12056L11.2677 6.21786L10.3408 5.5467L9.41397 6.21786L9.76554 5.12056L8.84934 4.46005H9.9786L10.3408 3.3734ZM16.8181 3.3734L17.1803 4.46005H18.3202L17.3827 5.12056L17.7449 6.21786L16.8181 5.5467L15.9019 6.21786L16.2428 5.12056L15.316 4.46005H16.4772L16.8181 3.3734ZM23.2954 3.3734L23.6469 4.46005H24.7975L23.8706 5.12056L24.2222 6.21786L23.2954 5.5467L22.3685 6.21786L22.7201 5.12056L21.8039 4.46005H22.9438L23.2954 3.3734ZM-5.85236 6.10067L-5.49015 7.20863H-4.36088L-5.27708 7.87979L-4.92552 8.96644L-5.85236 8.29528L-6.76855 8.96644L-6.42765 7.87979L-7.35449 7.20863H-6.19327L-5.85236 6.10067ZM0.62491 6.10067L0.976473 7.20863H2.12704L1.2002 7.87979L1.5411 8.96644L0.62491 8.29528L-0.301936 8.96644L0.0496268 7.86914L-0.866567 7.19798H0.262695L0.62491 6.10067ZM7.10218 6.10067L7.45375 7.19798H8.59366L7.67747 7.86914L8.02903 8.95579L7.10218 8.28462L6.17534 8.95579L6.5269 7.85849L5.60005 7.18732H6.75062L7.10218 6.10067ZM13.5795 6.10067L13.931 7.19798H15.0816L14.1547 7.86914L14.5063 8.95579L13.5795 8.28462L12.6526 8.95579L13.0148 7.85849L12.0773 7.18732H13.2172L13.5795 6.10067ZM20.0567 6.10067L20.4083 7.19798H21.5482L20.632 7.86914L20.9836 8.95579L20.0567 8.28462L19.1299 8.95579L19.4814 7.85849L18.5653 7.18732H19.7052L20.0567 6.10067ZM26.534 6.10067L26.8856 7.19798H28.0361L27.0986 7.86914L27.4608 8.95579L26.534 8.28462L25.6072 8.95579L25.9694 7.85849L25.0319 7.18732H26.1824L26.534 6.10067ZM-2.61373 8.87056L-2.26216 9.95721H-1.10094L-2.02779 10.6284L-1.67623 11.7257L-2.60307 11.0439L-3.52992 11.715L-3.17836 10.6284L-4.09455 9.95721H-2.95463L-2.61373 8.87056ZM3.86355 8.87056L4.22576 9.95721H5.36568L4.42818 10.6284L4.79039 11.7257L3.86355 11.0439L2.9367 11.715L3.28826 10.6284L2.36142 9.95721H3.51198L3.86355 8.87056ZM10.3408 8.87056L10.6924 9.95721H11.8429L10.9161 10.6284L11.2677 11.7257L10.3408 11.0439L9.41397 11.715L9.76554 10.6284L8.84934 9.95721H9.9786L10.3408 8.87056ZM16.8181 8.87056L17.1803 9.95721H18.3202L17.3934 10.6284L17.7449 11.7257L16.8181 11.0439L15.9019 11.715L16.2428 10.6284L15.316 9.95721H16.4772L16.8181 8.87056ZM23.2954 8.87056L23.6469 9.95721H24.7975L23.8706 10.6284L24.2222 11.7257L23.2954 11.0439L22.3685 11.715L22.7201 10.6284L21.8039 9.95721H22.9438L23.2954 8.87056ZM-5.85236 11.6298L-5.49015 12.7164H-4.36088L-5.27708 13.3876L-4.92552 14.4849L-5.85236 13.8031L-6.76855 14.4743L-6.42765 13.3876L-7.35449 12.7164H-6.19327L-5.85236 11.6298ZM0.62491 11.6298L0.976473 12.7164H2.12704L1.2002 13.3876L1.5411 14.4743L0.62491 13.8031L-0.301936 14.4743L0.0496268 13.3876L-0.866567 12.7164H0.262695L0.62491 11.6298ZM7.10218 11.6298L7.45375 12.7164H8.59366L7.67747 13.3876L8.02903 14.4849L7.10218 13.8031L6.17534 14.4743L6.5269 13.3876L5.60005 12.7164H6.75062L7.10218 11.6298ZM13.5795 11.6298L13.931 12.7164H15.0816L14.1547 13.3876L14.5063 14.4849L13.5795 13.8031L12.6526 14.4743L13.0148 13.3876L12.0773 12.7164H13.2172L13.5795 11.6298ZM20.0567 11.6298L20.4083 12.7164H21.5482L20.632 13.3876L20.9836 14.4849L20.0567 13.8031L19.1299 14.4743L19.4814 13.3876L18.5653 12.7164H19.7052L20.0567 11.6298ZM26.534 11.6298L26.8856 12.7164H28.0361L27.0986 13.3876L27.4608 14.4849L26.534 13.8031L25.6072 14.4743L25.9587 13.3876L25.0212 12.7164H26.1718L26.534 11.6298ZM-2.61373 14.3784L-2.26216 15.4757H-1.10094L-2.02779 16.1362L-1.67623 17.2335L-2.60307 16.5517L-3.52992 17.2335L-3.17836 16.1362L-4.09455 15.465H-2.95463L-2.61373 14.3784ZM3.86355 14.3784L4.22576 15.4757H5.36568L4.42818 16.1362L4.79039 17.2335L3.86355 16.5517L2.9367 17.2335L3.28826 16.1362L2.36142 15.465H3.51198L3.86355 14.3784ZM10.3408 14.3784L10.6924 15.4757H11.8429L10.9161 16.1362L11.2677 17.2335L10.3408 16.5517L9.41397 17.2335L9.76554 16.1362L8.84934 15.465H9.9786L10.3408 14.3784ZM16.8181 14.3784L17.1803 15.4757H18.3202L17.3934 16.1362L17.7449 17.2335L16.8181 16.5517L15.9019 17.2335L16.2428 16.1362L15.316 15.465H16.4772L16.8181 14.3784ZM23.2954 14.3784L23.6469 15.4757H24.7975L23.8706 16.1362L24.2222 17.2335L23.2954 16.5517L22.3685 17.2335L22.7201 16.1362L21.8039 15.465H22.9438L23.2954 14.3784ZM-5.85236 17.127L-5.49015 18.2243H-4.36088L-5.27708 18.8954L-4.92552 19.9714L-5.85236 19.3109L-6.76855 19.9714L-6.42765 18.8848L-7.35449 18.2136H-6.19327L-5.85236 17.127ZM0.62491 17.127L0.976473 18.2243H2.12704L1.2002 18.8954L1.55176 19.9714L0.62491 19.3109L-0.301936 19.9714L0.0602809 18.8848L-0.866567 18.2136H0.262695L0.62491 17.127ZM7.10218 17.127L7.45375 18.2243H8.59366L7.67747 18.8954L8.02903 19.9714L7.10218 19.3109L6.17534 19.9714L6.5269 18.8848L5.60005 18.2136H6.75062L7.10218 17.127ZM13.5795 17.127L13.931 18.2243H15.0816L14.1547 18.8954L14.5063 19.9714L13.5795 19.3109L12.6526 19.9714L13.0148 18.8848L12.0773 18.2136H13.2172L13.5795 17.127ZM20.0567 17.127L20.4083 18.2243H21.5482L20.632 18.8954L20.9836 19.9714L20.0567 19.3109L19.1299 19.9714L19.4814 18.8848L18.5653 18.2136H19.7052L20.0567 17.127ZM26.534 17.127L26.8856 18.2243H28.0361L27.0986 18.8954L27.4608 19.9714L26.534 19.3109L25.6072 19.9714L25.9694 18.8848L25.0319 18.2136H26.1824L26.534 17.127ZM-2.61373 19.8862L-2.26216 20.9728H-1.10094L-2.02779 21.644L-1.67623 22.7413L-2.60307 22.0595L-3.52992 22.7306L-3.17836 21.644L-4.09455 20.9728H-2.95463L-2.61373 19.8862ZM3.86355 19.8862L4.22576 20.9728H5.36568L4.42818 21.644L4.79039 22.7413L3.86355 22.0595L2.9367 22.7306L3.28826 21.644L2.36142 20.9728H3.51198L3.86355 19.8862ZM10.3408 19.8862L10.6924 20.9728H11.8429L10.9161 21.644L11.2677 22.7413L10.3408 22.0595L9.41397 22.7306L9.76554 21.644L8.84934 20.9728H9.9786L10.3408 19.8862ZM16.8181 19.8862L17.1803 20.9728H18.3202L17.3934 21.644L17.7449 22.7413L16.8181 22.0595L15.9019 22.7306L16.2428 21.644L15.316 20.9728H16.4772L16.8181 19.8862ZM23.2954 19.8862L23.6469 20.9728H24.7975L23.8706 21.644L24.2222 22.7413L23.2954 22.0595L22.3685 22.7306L22.7201 21.644L21.8039 20.9728H22.9438L23.2954 19.8862ZM-5.85236 22.6454L-5.49015 23.7321H-4.36088L-5.27708 24.4032L-4.92552 25.4899L-5.85236 24.8187L-6.76855 25.4899L-6.42765 24.3926L-7.35449 23.7214H-6.19327L-5.85236 22.6454ZM0.62491 22.6454L0.976473 23.7321H2.12704L1.2002 24.4032L1.55176 25.4899L0.62491 24.8187L-0.301936 25.4899L0.0602809 24.3926L-0.866567 23.7214H0.262695L0.62491 22.6454ZM7.10218 22.6454L7.45375 23.7321H8.59366L7.69877 24.4032L8.05034 25.4899L7.12349 24.8187L6.19664 25.4899L6.54821 24.3926L5.62136 23.7214H6.77193L7.10218 22.6454ZM13.5795 22.6454L13.931 23.7321H15.0816L14.1547 24.4032L14.5063 25.4899L13.5795 24.8187L12.6526 25.4899L13.0148 24.3926L12.0773 23.7214H13.2172L13.5795 22.6454ZM20.0567 22.6454L20.4083 23.7321H21.5482L20.632 24.4032L20.9836 25.4899L20.0567 24.8187L19.1299 25.4899L19.4814 24.3926L18.5653 23.7214H19.7052L20.0567 22.6454ZM26.534 22.6454L26.8856 23.7321H28.0361L27.0986 24.4032L27.4608 25.4899L26.534 24.8187L25.6072 25.4899L25.9694 24.3926L25.0319 23.7214H26.1824L26.534 22.6454Z" fill="white"/>
</g>
</g>
<defs>
<clipPath id="clip0_231_816">
<rect width="50" height="50" rx="25" fill="white"/>
</clipPath>
<clipPath id="clip1_231_816">
<rect width="68.1818" height="51.1364" fill="white" transform="translate(-9.09094 -0.568359)"/>
</clipPath>
</defs>
</svg>
