<svg width="50" height="50" viewBox="0 0 50 50" fill="none" xmlns="http://www.w3.org/2000/svg">
<g clip-path="url(#clip0_231_754)">
<g clip-path="url(#clip1_231_754)">
<path fill-rule="evenodd" clip-rule="evenodd" d="M61.6924 50.7044H-11.5515V-0.568359H61.6924V50.7044Z" fill="#BA0000"/>
<path fill-rule="evenodd" clip-rule="evenodd" d="M24.0289 24.247C24.0289 24.247 18.8616 22.0239 19.6026 16.2557C20.3136 13.4818 21.5854 11.5891 23.8787 10.5576C24.9602 10.2272 26.0618 10.0769 27.1834 9.98682C26.8829 10.2672 26.6426 10.5476 26.5124 10.8881C26.2721 11.529 26.4523 12.1299 26.7828 12.7407C27.1934 13.4417 27.4437 14.1627 27.5239 15.1041C27.5991 15.7455 27.5035 16.3955 27.2468 16.9881C26.99 17.5808 26.5812 18.095 26.0618 18.4789C25.4008 18.9896 24.6197 19.1698 23.9788 19.7507C23.4781 20.2313 23.1777 20.722 23.0776 21.5632C23.0575 23.1755 23.4881 23.4058 24.0289 24.247V24.247Z" fill="white"/>
<path fill-rule="evenodd" clip-rule="evenodd" d="M23.1427 15.875V15.905H22.9324V15.875H23.1427Z" fill="black"/>
<path fill-rule="evenodd" clip-rule="evenodd" d="M21.9974 19.6691C22.0135 21.1822 22.4681 22.709 23.4377 23.5672L23.2984 23.7246C22.2652 22.8103 21.8035 21.2126 21.7871 19.6714C21.7788 18.8982 21.8824 18.1326 22.086 17.464C22.2892 16.7967 22.5942 16.2192 22.9943 15.8296L23.141 15.9802C22.7749 16.3367 22.4842 16.8782 22.2871 17.5253C22.0905 18.1712 21.9893 18.9152 21.9974 19.6691Z" fill="#BA0000"/>
<path fill-rule="evenodd" clip-rule="evenodd" d="M24.2994 14.9035L24.6299 15.4543L24.029 15.2039L23.5583 15.7046L23.6384 15.0537L23.0376 14.8033L23.6885 14.6531L23.7686 14.0122L24.0991 14.563L24.76 14.4128" fill="#BA0000"/>
<path fill-rule="evenodd" clip-rule="evenodd" d="M24.4696 23.8661C24.4696 23.8661 25.0705 18.2682 30.8086 17.2868C33.6727 17.1666 35.8558 17.8175 37.5181 19.7202C38.149 20.6515 38.6097 21.663 39.0202 22.7045C38.6697 22.5042 38.3393 22.354 37.9587 22.3339C37.2878 22.2839 36.757 22.6344 36.2764 23.1251C35.715 23.7464 35.0151 24.2268 34.2335 24.527C33.6429 24.7882 32.9939 24.8886 32.352 24.8183C31.7101 24.748 31.0982 24.5093 30.5783 24.1265C29.8973 23.6358 29.4967 22.9448 28.7557 22.5042C28.1534 22.1462 27.4396 22.0248 26.7528 22.1637C25.2006 22.6243 25.1205 23.105 24.4696 23.8661V23.8661Z" fill="white"/>
<path fill-rule="evenodd" clip-rule="evenodd" d="M32.1806 20.5868H32.1505V20.3765H32.1806V20.5868Z" fill="black"/>
<path fill-rule="evenodd" clip-rule="evenodd" d="M28.2505 20.5843C26.8082 21.0431 25.4788 21.9257 24.9356 23.1091L24.7445 23.0214C25.3229 21.7613 26.7174 20.8513 28.1867 20.3839C28.9238 20.1494 29.6858 20.0241 30.3841 20.0225C31.0811 20.0209 31.7219 20.1426 32.2108 20.4093L32.1101 20.5939C31.6627 20.3499 31.0605 20.2312 30.3846 20.2328C29.71 20.2343 28.9693 20.3556 28.2505 20.5843Z" fill="#BA0000"/>
<path fill-rule="evenodd" clip-rule="evenodd" d="M33.4824 21.3929L33.0518 21.8636L33.1118 21.2126L32.511 20.9122L33.1419 20.8121L33.202 20.1411L33.5424 20.742L34.1834 20.6218L33.7527 21.0925L34.0832 21.6933" fill="#BA0000"/>
<path fill-rule="evenodd" clip-rule="evenodd" d="M24.8501 24.2671C24.8501 24.2671 30.3579 23.0654 33.1018 28.2027C34.1333 30.8765 34.2034 33.1497 32.9316 35.3228C32.2506 36.2241 31.4294 36.9751 30.5782 37.7062C30.6583 37.3056 30.6884 36.9451 30.5882 36.5846C30.428 35.9236 29.9273 35.5331 29.3064 35.2327C28.536 34.8958 27.8565 34.381 27.3236 33.7305C26.8916 33.2533 26.5928 32.6707 26.4575 32.0413C26.3221 31.412 26.3549 30.7581 26.5525 30.1454C26.7929 29.3443 27.3236 28.7434 27.5039 27.9023C27.6537 27.2193 27.543 26.505 27.1934 25.8994C26.2621 24.5775 25.7814 24.6476 24.8501 24.2671Z" fill="white"/>
<path fill-rule="evenodd" clip-rule="evenodd" d="M30.4982 30.4858L30.5182 30.5059Z" fill="#BA0000"/>
<path fill-rule="evenodd" clip-rule="evenodd" d="M30.4439 30.5799L30.4238 30.5598L30.5725 30.4111L30.5925 30.4312L30.4439 30.5799Z" fill="black"/>
<path fill-rule="evenodd" clip-rule="evenodd" d="M29.1676 26.8151C28.276 25.5922 27.02 24.6124 25.73 24.4718L25.7528 24.2627C27.1266 24.4125 28.4292 25.4455 29.3376 26.6912C29.7932 27.316 30.1537 27.9996 30.377 28.6626C30.5999 29.3245 30.6884 29.9728 30.5917 30.5241L30.3845 30.4878C30.4731 29.9826 30.3939 29.3716 30.1777 28.7297C29.9619 28.0891 29.612 27.4244 29.1676 26.8151Z" fill="#BA0000"/>
<path fill-rule="evenodd" clip-rule="evenodd" d="M30.0575 32.0381L29.4667 31.7777L30.1176 31.6275L30.1977 30.9565L30.5082 31.5274L31.1591 31.3771L30.7084 31.8779L31.0089 32.4487L30.428 32.1883L29.9774 32.699" fill="#BA0000"/>
<path fill-rule="evenodd" clip-rule="evenodd" d="M24.73 24.8377C24.73 24.8377 27.4238 29.7847 23.2779 33.8504C20.9947 35.5929 18.8316 36.3039 16.3882 35.693C15.3367 35.2925 14.3853 34.7217 13.434 34.1008C13.8345 34.0707 14.2051 34.0006 14.5255 33.8004C15.1063 33.4599 15.3367 32.869 15.4568 32.1981C15.5611 31.3614 15.8632 30.5615 16.3381 29.8648C16.6741 29.315 17.1491 28.8635 17.7152 28.5559C18.2813 28.2482 18.9186 28.0952 19.5627 28.1123C20.4038 28.1223 21.1249 28.4728 21.9861 28.4127C22.6771 28.3226 23.2178 28.1323 23.8287 27.5315C24.8301 26.2797 24.6298 25.8291 24.73 24.8276V24.8377Z" fill="white"/>
<path fill-rule="evenodd" clip-rule="evenodd" d="M20.3438 32.0078L20.3337 32.0278Z" fill="#BA0000"/>
<path fill-rule="evenodd" clip-rule="evenodd" d="M20.2396 31.981L20.2496 31.9609L20.4377 32.055L20.4277 32.075L20.2396 31.981Z" fill="black"/>
<path fill-rule="evenodd" clip-rule="evenodd" d="M23.4974 29.6933C24.42 28.4929 25.0043 27.0084 24.7667 25.7283L24.9735 25.6899C25.2266 27.0536 24.6042 28.5984 23.6642 29.8214C23.1926 30.435 22.6373 30.9729 22.0629 31.3721C21.4896 31.7706 20.8914 32.0351 20.3345 32.0926L20.3129 31.8834C20.8225 31.8308 21.3871 31.5858 21.9429 31.1995C22.4977 30.8138 23.0377 30.2915 23.4974 29.6933Z" fill="#BA0000"/>
<path fill-rule="evenodd" clip-rule="evenodd" d="M18.7315 32.0179L18.8216 31.377L19.1521 31.9478L19.813 31.8476L19.3524 32.3083L19.6828 32.8791L19.072 32.5887L18.6113 33.0493L18.6914 32.4084L18.0806 32.118" fill="#BA0000"/>
<path fill-rule="evenodd" clip-rule="evenodd" d="M24.119 24.7275C24.119 24.7275 20.3537 28.9134 15.1263 26.3698C12.7229 24.7976 11.3409 22.985 11.1106 20.4814C11.1406 19.3498 11.3509 18.2683 11.6213 17.1768C11.7916 17.5373 11.9818 17.8577 12.2722 18.0981C12.783 18.5287 13.4239 18.5487 14.1048 18.4385C14.9222 18.2596 15.7706 18.2802 16.5784 18.4986C17.2108 18.6318 17.7968 18.9298 18.2769 19.3624C18.757 19.795 19.1142 20.3469 19.3122 20.9621C19.5826 21.7532 19.4925 22.5544 19.843 23.3455C20.1434 23.9664 20.5039 24.407 21.275 24.7876C22.7972 25.3183 23.1477 24.9778 24.119 24.7375V24.7275Z" fill="white"/>
<path fill-rule="evenodd" clip-rule="evenodd" d="M15.8975 22.9851L15.8774 22.9751Z" fill="#BA0000"/>
<path fill-rule="evenodd" clip-rule="evenodd" d="M15.9244 22.8809L15.9444 22.8909L15.8504 23.079L15.8303 23.069L15.9244 22.8809Z" fill="black"/>
<path fill-rule="evenodd" clip-rule="evenodd" d="M19.1297 25.1808C20.5683 25.6521 22.1609 25.7116 23.2857 25.0668L23.3903 25.2493C22.1917 25.9363 20.5297 25.8607 19.0642 25.3806C18.329 25.1398 17.637 24.7953 17.069 24.3872C16.5022 23.9798 16.053 23.5047 15.8125 23.0002L16.0023 22.9097C16.2225 23.3715 16.6421 23.8214 17.1918 24.2164C17.7404 24.6107 18.4128 24.9459 19.1297 25.1808Z" fill="#BA0000"/>
<path fill-rule="evenodd" clip-rule="evenodd" d="M15.3567 21.4629L15.9875 21.3327L15.5569 21.8334L15.8674 22.4243L15.2866 22.1439L14.8559 22.6446L14.926 21.9636L14.3352 21.6832L14.9661 21.553L15.0362 20.8721" fill="#BA0000"/>
</g>
</g>
<defs>
<clipPath id="clip0_231_754">
<rect width="50" height="50" rx="25" fill="white"/>
</clipPath>
<clipPath id="clip1_231_754">
<rect width="68.1818" height="51.1364" fill="white" transform="translate(-9.09094 -0.568359)"/>
</clipPath>
</defs>
</svg>
